<svg xmlns="http://www.w3.org/2000/svg" xmlns:xlink="http://www.w3.org/1999/xlink" width="300" zoomAndPan="magnify" viewBox="0 0 224.87999 74.999997" height="100" preserveAspectRatio="xMidYMid meet" version="1.2"><defs><clipPath id="6f153fc93c"><path d="M 33 7.300781 L 54 7.300781 L 54 28 L 33 28 Z M 33 7.300781 "/></clipPath><clipPath id="bc23fced76"><path d="M 60 7.300781 L 81 7.300781 L 81 28 L 60 28 Z M 60 7.300781 "/></clipPath><clipPath id="1d926940fc"><path d="M 19 45 L 39 45 L 39 71.765625 L 19 71.765625 Z M 19 45 "/></clipPath></defs><g id="e938ea7c53"><path style=" stroke:none;fill-rule:nonzero;fill:#294f19;fill-opacity:1;" d="M 57.117188 38.910156 C 56.191406 38.910156 55.4375 38.160156 55.4375 37.230469 L 55.4375 30.9375 C 55.4375 30.011719 56.191406 29.257812 57.117188 29.257812 C 58.046875 29.257812 58.796875 30.011719 58.796875 30.9375 L 58.796875 37.230469 C 58.796875 38.160156 58.046875 38.910156 57.117188 38.910156 Z M 57.117188 38.910156 "/><g clip-rule="nonzero" clip-path="url(#6f153fc93c)"><path style=" stroke:none;fill-rule:nonzero;fill:#294f19;fill-opacity:1;" d="M 51.273438 27.515625 C 45.628906 27.515625 41.296875 26.042969 38.382812 23.128906 C 35.300781 20.042969 33.828125 15.367188 34.011719 9.226562 C 34.039062 8.339844 34.75 7.625 35.640625 7.597656 C 41.785156 7.402344 46.46875 8.871094 49.554688 11.957031 C 52.640625 15.042969 54.105469 19.722656 53.914062 25.871094 C 53.886719 26.761719 53.171875 27.472656 52.285156 27.5 C 51.941406 27.511719 51.605469 27.515625 51.273438 27.515625 Z M 37.367188 10.949219 C 37.476562 15.3125 38.613281 18.605469 40.757812 20.75 C 42.90625 22.898438 46.199219 24.035156 50.5625 24.144531 C 50.457031 19.773438 49.324219 16.476562 47.175781 14.332031 C 45.03125 12.1875 41.738281 11.050781 37.367188 10.949219 Z M 37.367188 10.949219 "/></g><path style=" stroke:none;fill-rule:nonzero;fill:#294f19;fill-opacity:1;" d="M 57.117188 32.621094 C 56.675781 32.621094 56.230469 32.445312 55.902344 32.101562 L 45.511719 21.210938 C 44.871094 20.539062 44.894531 19.476562 45.566406 18.835938 C 46.238281 18.195312 47.304688 18.21875 47.941406 18.890625 L 58.332031 29.777344 C 58.972656 30.449219 58.949219 31.515625 58.277344 32.15625 C 57.953125 32.464844 57.535156 32.621094 57.117188 32.621094 Z M 57.117188 32.621094 "/><g clip-rule="nonzero" clip-path="url(#bc23fced76)"><path style=" stroke:none;fill-rule:nonzero;fill:#294f19;fill-opacity:1;" d="M 62.964844 27.515625 C 62.628906 27.515625 62.292969 27.507812 61.953125 27.5 C 61.066406 27.472656 60.351562 26.761719 60.324219 25.871094 C 60.128906 19.722656 61.597656 15.042969 64.679688 11.957031 C 67.765625 8.871094 72.4375 7.394531 78.597656 7.597656 C 79.484375 7.625 80.199219 8.339844 80.226562 9.226562 C 80.410156 15.363281 78.9375 20.042969 75.851562 23.128906 C 72.9375 26.039062 68.605469 27.515625 62.964844 27.515625 Z M 76.871094 10.949219 C 72.5 11.050781 69.203125 12.1875 67.058594 14.332031 C 64.914062 16.476562 63.777344 19.773438 63.675781 24.144531 C 68.039062 24.035156 71.332031 22.898438 73.476562 20.75 C 75.621094 18.605469 76.761719 15.3125 76.871094 10.949219 Z M 76.871094 10.949219 "/></g><path style=" stroke:none;fill-rule:nonzero;fill:#294f19;fill-opacity:1;" d="M 57.117188 32.621094 C 56.699219 32.621094 56.285156 32.464844 55.957031 32.15625 C 55.285156 31.515625 55.261719 30.449219 55.902344 29.777344 L 66.292969 18.890625 C 66.933594 18.21875 67.996094 18.195312 68.667969 18.835938 C 69.339844 19.476562 69.367188 20.539062 68.722656 21.210938 L 58.332031 32.101562 C 58.003906 32.445312 57.5625 32.621094 57.117188 32.621094 Z M 57.117188 32.621094 "/><path style=" stroke:none;fill-rule:nonzero;fill:#294f19;fill-opacity:1;" d="M 77.515625 47.945312 C 74.851562 40.648438 66.136719 35.550781 56.324219 35.550781 C 48.179688 35.550781 40.746094 38.996094 36.917969 44.542969 C 36.546875 45.078125 36.519531 45.78125 36.847656 46.34375 C 37.175781 46.90625 37.796875 47.226562 38.449219 47.171875 C 40.230469 47.011719 41.972656 47.261719 43.632812 47.914062 L 52.191406 51.261719 C 52.386719 51.339844 52.59375 51.378906 52.804688 51.378906 L 60.578125 51.378906 C 61.367188 51.378906 62.0625 51.992188 62.066406 52.679688 L 62.066406 52.738281 C 62.066406 52.761719 62.0625 52.78125 62.0625 52.800781 C 62.039062 53.082031 61.910156 53.363281 61.703125 53.578125 C 61.144531 54.167969 61.082031 55.070312 61.558594 55.726562 C 61.882812 56.175781 62.394531 56.421875 62.921875 56.421875 C 63.164062 56.421875 63.410156 56.367188 63.644531 56.257812 L 76.660156 50.039062 C 77.441406 49.667969 77.8125 48.757812 77.515625 47.945312 Z M 77.515625 47.945312 "/><path style=" stroke:none;fill-rule:nonzero;fill:#294f19;fill-opacity:1;" d="M 62.921875 56.417969 C 62.503906 56.417969 62.085938 56.265625 61.761719 55.953125 C 61.089844 55.316406 61.066406 54.25 61.707031 53.578125 C 61.910156 53.363281 62.042969 53.078125 62.0625 52.800781 C 62.066406 52.777344 62.066406 52.757812 62.070312 52.738281 L 62.070312 52.699219 C 62.066406 51.992188 61.367188 51.378906 60.578125 51.378906 L 52.804688 51.378906 C 52.597656 51.378906 52.386719 51.339844 52.191406 51.261719 L 43.636719 47.914062 C 41.972656 47.261719 40.230469 47.011719 38.449219 47.171875 C 37.527344 47.246094 36.710938 46.570312 36.625 45.648438 C 36.542969 44.722656 37.226562 43.90625 38.148438 43.824219 C 40.453125 43.621094 42.707031 43.941406 44.859375 44.785156 L 53.121094 48.015625 L 60.578125 48.015625 C 63.238281 48.015625 65.410156 50.101562 65.429688 52.664062 L 65.429688 52.855469 C 65.429688 52.941406 65.421875 53.03125 65.40625 53.128906 C 65.3125 54.15625 64.859375 55.136719 64.136719 55.898438 C 63.808594 56.242188 63.363281 56.417969 62.921875 56.417969 Z M 62.921875 56.417969 "/><path style=" stroke:none;fill-rule:nonzero;fill:#294f19;fill-opacity:1;" d="M 60.769531 57.335938 L 52.804688 57.335938 C 51.878906 57.335938 51.125 56.585938 51.125 55.65625 C 51.125 54.730469 51.878906 53.976562 52.804688 53.976562 L 60.769531 53.976562 C 61.125 53.976562 61.460938 53.835938 61.707031 53.574219 C 62.351562 52.90625 63.417969 52.886719 64.085938 53.527344 C 64.753906 54.171875 64.777344 55.234375 64.132812 55.902344 C 63.242188 56.828125 62.050781 57.339844 60.769531 57.339844 Z M 60.769531 57.335938 "/><path style=" stroke:none;fill-rule:nonzero;fill:#294f19;fill-opacity:1;" d="M 27.90625 51.738281 C 27.324219 51.738281 26.757812 51.433594 26.449219 50.890625 C 25.984375 50.085938 26.265625 49.058594 27.070312 48.597656 L 32.085938 45.71875 C 32.890625 45.257812 33.917969 45.535156 34.382812 46.339844 C 34.84375 47.148438 34.566406 48.171875 33.757812 48.636719 L 28.742188 51.515625 C 28.476562 51.664062 28.191406 51.738281 27.90625 51.738281 Z M 27.90625 51.738281 "/><path style=" stroke:none;fill-rule:nonzero;fill:#294f19;fill-opacity:1;" d="M 62.316406 65.660156 L 49.097656 65.660156 C 47.902344 65.660156 46.71875 65.363281 45.675781 64.796875 L 40.949219 62.230469 C 39.867188 61.648438 38.558594 61.621094 37.449219 62.15625 L 35.273438 63.199219 C 34.433594 63.601562 33.433594 63.246094 33.03125 62.410156 C 32.628906 61.570312 32.984375 60.570312 33.820312 60.167969 L 35.996094 59.125 C 38.066406 58.125 40.519531 58.179688 42.546875 59.273438 L 47.277344 61.84375 C 47.835938 62.144531 48.449219 62.300781 49.097656 62.300781 L 62.316406 62.300781 C 63.085938 62.300781 63.832031 62.074219 64.46875 61.644531 L 78.996094 51.835938 C 79.308594 51.625 79.507812 51.308594 79.5625 50.941406 C 79.617188 50.566406 79.519531 50.199219 79.28125 49.90625 C 78.914062 49.453125 78.242188 49.304688 77.746094 49.523438 L 76.65625 50.039062 C 75.820312 50.4375 74.816406 50.082031 74.417969 49.242188 C 74.019531 48.40625 74.378906 47.402344 75.214844 47.003906 L 76.347656 46.464844 C 78.34375 45.585938 80.585938 46.179688 81.890625 47.785156 C 82.71875 48.808594 83.082031 50.140625 82.886719 51.4375 C 82.691406 52.730469 81.957031 53.890625 80.871094 54.621094 L 66.347656 64.429688 C 65.148438 65.234375 63.757812 65.660156 62.316406 65.660156 Z M 62.316406 65.660156 "/><g clip-rule="nonzero" clip-path="url(#1d926940fc)"><path style=" stroke:none;fill-rule:nonzero;fill:#294f19;fill-opacity:1;" d="M 29.554688 71.429688 C 29.414062 71.429688 29.273438 71.410156 29.136719 71.375 C 28.675781 71.257812 28.285156 70.949219 28.066406 70.523438 L 19.277344 53.644531 C 18.9375 52.988281 19.066406 52.1875 19.589844 51.667969 L 25.191406 46.167969 C 25.5625 45.800781 26.078125 45.632812 26.597656 45.703125 C 27.113281 45.773438 27.566406 46.082031 27.828125 46.53125 L 37.976562 64.296875 C 38.417969 65.066406 38.183594 66.042969 37.449219 66.53125 L 30.484375 71.148438 C 30.207031 71.335938 29.882812 71.429688 29.554688 71.429688 Z M 22.832031 53.195312 L 30.183594 67.316406 L 34.28125 64.597656 L 25.992188 50.089844 Z M 22.832031 53.195312 "/></g><path style=" stroke:none;fill-rule:nonzero;fill:#294f19;fill-opacity:1;" d="M 62.921875 56.421875 C 62.292969 56.421875 61.691406 56.066406 61.40625 55.464844 C 61.003906 54.625 61.359375 53.625 62.195312 53.222656 L 75.214844 47.007812 C 76.050781 46.605469 77.054688 46.960938 77.453125 47.796875 C 77.851562 48.636719 77.5 49.640625 76.660156 50.039062 L 63.644531 56.253906 C 63.414062 56.367188 63.164062 56.421875 62.921875 56.421875 Z M 62.921875 56.421875 "/><g style="fill:#294f19;fill-opacity:1;"><g transform="translate(96.004178, 44.607652)"><path style="stroke:none" d="M 7.84375 0 C 6.40625 0 5.273438 -0.410156 4.453125 -1.234375 C 3.640625 -2.054688 3.234375 -3.175781 3.234375 -4.59375 L 3.234375 -20.25 L 6.15625 -20.25 L 6.15625 -4.796875 C 6.15625 -4.097656 6.347656 -3.539062 6.734375 -3.125 C 7.128906 -2.707031 7.675781 -2.5 8.375 -2.5 L 11.640625 -2.5 L 11.640625 0 Z M 0.4375 -13.671875 L 0.4375 -16.1875 L 11.703125 -16.1875 L 11.703125 -13.671875 Z M 0.4375 -13.671875 "/></g></g><g style="fill:#294f19;fill-opacity:1;"><g transform="translate(107.362227, 44.607652)"><path style="stroke:none" d="M 9.046875 0.375 C 7.484375 0.375 6.128906 0 4.984375 -0.75 C 3.835938 -1.5 2.957031 -2.519531 2.34375 -3.8125 C 1.726562 -5.101562 1.421875 -6.53125 1.421875 -8.09375 C 1.421875 -9.675781 1.757812 -11.109375 2.4375 -12.390625 C 3.113281 -13.671875 4.085938 -14.6875 5.359375 -15.4375 C 6.628906 -16.1875 8.15625 -16.5625 9.9375 -16.5625 C 11.644531 -16.5625 13.113281 -16.191406 14.34375 -15.453125 C 15.570312 -14.710938 16.519531 -13.707031 17.1875 -12.4375 C 17.851562 -11.164062 18.1875 -9.75 18.1875 -8.1875 L 18.1875 0 L 15.234375 0 L 15.234375 -3.296875 L 15.171875 -3.296875 C 14.847656 -2.679688 14.414062 -2.09375 13.875 -1.53125 C 13.34375 -0.976562 12.671875 -0.519531 11.859375 -0.15625 C 11.054688 0.195312 10.117188 0.375 9.046875 0.375 Z M 9.8125 -2.125 C 10.863281 -2.125 11.796875 -2.382812 12.609375 -2.90625 C 13.429688 -3.425781 14.066406 -4.144531 14.515625 -5.0625 C 14.972656 -5.976562 15.203125 -7.007812 15.203125 -8.15625 C 15.203125 -9.28125 14.984375 -10.285156 14.546875 -11.171875 C 14.117188 -12.054688 13.5 -12.757812 12.6875 -13.28125 C 11.882812 -13.800781 10.945312 -14.0625 9.875 -14.0625 C 8.726562 -14.0625 7.75 -13.796875 6.9375 -13.265625 C 6.125 -12.734375 5.5 -12.019531 5.0625 -11.125 C 4.625 -10.226562 4.40625 -9.207031 4.40625 -8.0625 C 4.40625 -6.957031 4.617188 -5.957031 5.046875 -5.0625 C 5.472656 -4.164062 6.085938 -3.453125 6.890625 -2.921875 C 7.691406 -2.390625 8.664062 -2.125 9.8125 -2.125 Z M 9.8125 -2.125 "/></g></g><g style="fill:#294f19;fill-opacity:1;"><g transform="translate(126.810611, 44.607652)"><path style="stroke:none" d="M 2.3125 0 L 2.3125 -9.359375 C 2.3125 -10.796875 2.632812 -12.050781 3.28125 -13.125 C 3.925781 -14.207031 4.820312 -15.050781 5.96875 -15.65625 C 7.113281 -16.257812 8.414062 -16.5625 9.875 -16.5625 C 11.351562 -16.5625 12.65625 -16.257812 13.78125 -15.65625 C 14.914062 -15.050781 15.804688 -14.207031 16.453125 -13.125 C 17.097656 -12.050781 17.421875 -10.796875 17.421875 -9.359375 L 17.421875 0 L 14.5 0 L 14.5 -9.328125 C 14.5 -10.304688 14.28125 -11.148438 13.84375 -11.859375 C 13.414062 -12.566406 12.847656 -13.109375 12.140625 -13.484375 C 11.429688 -13.867188 10.675781 -14.0625 9.875 -14.0625 C 9.0625 -14.0625 8.300781 -13.867188 7.59375 -13.484375 C 6.882812 -13.109375 6.3125 -12.566406 5.875 -11.859375 C 5.445312 -11.148438 5.234375 -10.304688 5.234375 -9.328125 L 5.234375 0 Z M 2.3125 0 "/></g></g><g style="fill:#294f19;fill-opacity:1;"><g transform="translate(145.497559, 44.607652)"><path style="stroke:none" d="M 2.3125 0 L 2.3125 -16.1875 L 5.265625 -16.1875 L 5.265625 0 Z M 3.8125 -18.765625 C 3.28125 -18.765625 2.816406 -18.957031 2.421875 -19.34375 C 2.035156 -19.738281 1.84375 -20.203125 1.84375 -20.734375 C 1.84375 -21.253906 2.035156 -21.710938 2.421875 -22.109375 C 2.816406 -22.503906 3.28125 -22.703125 3.8125 -22.703125 C 4.332031 -22.703125 4.785156 -22.503906 5.171875 -22.109375 C 5.566406 -21.710938 5.765625 -21.253906 5.765625 -20.734375 C 5.765625 -20.203125 5.566406 -19.738281 5.171875 -19.34375 C 4.785156 -18.957031 4.332031 -18.765625 3.8125 -18.765625 Z M 3.8125 -18.765625 "/></g></g><g style="fill:#824621;fill-opacity:1;"><g transform="translate(145.139473, 49.642578)"><path style="stroke:none" d="M 23.328125 -14.015625 C 25.128906 -13.785156 26.570312 -13.410156 27.65625 -12.890625 C 28.75 -12.367188 29.578125 -11.78125 30.140625 -11.125 C 30.710938 -10.46875 31.101562 -9.800781 31.3125 -9.125 C 31.53125 -8.445312 31.640625 -7.828125 31.640625 -7.265625 C 31.640625 -5.742188 31.066406 -4.421875 29.921875 -3.296875 C 29.296875 -2.679688 28.539062 -2.171875 27.65625 -1.765625 C 26.78125 -1.367188 25.859375 -1.046875 24.890625 -0.796875 C 23.929688 -0.554688 22.992188 -0.378906 22.078125 -0.265625 C 21.160156 -0.148438 20.335938 -0.078125 19.609375 -0.046875 C 18.878906 -0.015625 18.320312 0 17.9375 0 C 17.851562 0 17.773438 0 17.703125 0 C 17.628906 0 17.570312 0 17.53125 0 L 1.90625 0 L 1.90625 -22.15625 L 11.765625 -22.15625 C 12.546875 -22.15625 13.453125 -22.132812 14.484375 -22.09375 C 15.523438 -22.050781 16.582031 -21.945312 17.65625 -21.78125 C 18.738281 -21.613281 19.738281 -21.320312 20.65625 -20.90625 C 21.570312 -20.5 22.316406 -19.921875 22.890625 -19.171875 C 23.460938 -18.421875 23.75 -17.460938 23.75 -16.296875 C 23.75 -15.429688 23.609375 -14.671875 23.328125 -14.015625 Z M 5.984375 -18.078125 L 5.984375 -14.234375 L 10.9375 -14.234375 C 12.6875 -14.234375 14.109375 -14.269531 15.203125 -14.34375 C 16.304688 -14.414062 17.164062 -14.519531 17.78125 -14.65625 C 18.394531 -14.800781 18.832031 -14.957031 19.09375 -15.125 C 19.363281 -15.289062 19.523438 -15.472656 19.578125 -15.671875 C 19.628906 -15.878906 19.65625 -16.085938 19.65625 -16.296875 C 19.65625 -16.566406 19.445312 -16.835938 19.03125 -17.109375 C 18.625 -17.390625 17.851562 -17.617188 16.71875 -17.796875 C 15.59375 -17.984375 13.941406 -18.078125 11.765625 -18.078125 Z M 26.75 -6.21875 C 26.96875 -6.425781 27.101562 -6.613281 27.15625 -6.78125 C 27.207031 -6.945312 27.234375 -7.109375 27.234375 -7.265625 C 27.234375 -7.960938 26.867188 -8.519531 26.140625 -8.9375 C 25.410156 -9.363281 24.460938 -9.671875 23.296875 -9.859375 C 22.140625 -10.046875 20.925781 -10.140625 19.65625 -10.140625 L 5.984375 -10.140625 L 5.984375 -4.09375 L 17.5625 -4.09375 C 18.257812 -4.070312 19.050781 -4.09375 19.9375 -4.15625 C 20.820312 -4.21875 21.703125 -4.332031 22.578125 -4.5 C 23.460938 -4.664062 24.273438 -4.890625 25.015625 -5.171875 C 25.753906 -5.460938 26.332031 -5.8125 26.75 -6.21875 Z M 26.75 -6.21875 "/></g></g><g style="fill:#824621;fill-opacity:1;"><g transform="translate(178.49139, 49.642578)"><path style="stroke:none" d="M 7.390625 -22.21875 C 8.648438 -22.21875 9.78125 -21.734375 10.78125 -20.765625 C 11.789062 -19.796875 12.585938 -18.46875 13.171875 -16.78125 C 13.753906 -15.101562 14.046875 -13.207031 14.046875 -11.09375 C 14.046875 -8.976562 13.753906 -7.085938 13.171875 -5.421875 C 12.585938 -3.753906 11.789062 -2.429688 10.78125 -1.453125 C 9.78125 -0.484375 8.648438 0 7.390625 0 C 6.117188 0 4.976562 -0.484375 3.96875 -1.453125 C 2.96875 -2.429688 2.175781 -3.753906 1.59375 -5.421875 C 1.019531 -7.085938 0.734375 -8.976562 0.734375 -11.09375 C 0.734375 -13.207031 1.019531 -15.101562 1.59375 -16.78125 C 2.175781 -18.46875 2.96875 -19.796875 3.96875 -20.765625 C 4.976562 -21.734375 6.117188 -22.21875 7.390625 -22.21875 Z M 7.390625 -4.09375 C 7.640625 -4.09375 7.960938 -4.359375 8.359375 -4.890625 C 8.765625 -5.429688 9.128906 -6.222656 9.453125 -7.265625 C 9.785156 -8.316406 9.953125 -9.59375 9.953125 -11.09375 C 9.953125 -12.613281 9.785156 -13.894531 9.453125 -14.9375 C 9.128906 -15.988281 8.765625 -16.785156 8.359375 -17.328125 C 7.960938 -17.867188 7.640625 -18.140625 7.390625 -18.140625 C 7.128906 -18.140625 6.796875 -17.867188 6.390625 -17.328125 C 5.992188 -16.785156 5.628906 -15.988281 5.296875 -14.9375 C 4.972656 -13.894531 4.8125 -12.613281 4.8125 -11.09375 C 4.8125 -9.59375 4.972656 -8.316406 5.296875 -7.265625 C 5.628906 -6.222656 5.992188 -5.429688 6.390625 -4.890625 C 6.796875 -4.359375 7.128906 -4.09375 7.390625 -4.09375 Z M 7.390625 -4.09375 "/></g></g><g style="fill:#824621;fill-opacity:1;"><g transform="translate(192.028585, 49.642578)"><path style="stroke:none" d="M 11.484375 -22.21875 L 11.484375 -18.140625 L 8.71875 -18.140625 L 8.71875 0 L 4.65625 0 L 4.65625 -18.140625 L 1.90625 -18.140625 L 1.90625 -22.21875 Z M 11.484375 -22.21875 "/></g></g></g></svg>